<svg width="20" height="20" viewBox="0 0 20 20" fill="none" xmlns="http://www.w3.org/2000/svg">
<path fill-rule="evenodd" clip-rule="evenodd" d="M14.6937 0.0914099C14.3384 0.204522 13.129 1.35637 13.129 1.58165C13.129 1.6835 13.3989 2.0165 13.8434 2.46277C14.4713 3.09333 14.5518 3.2048 14.5069 3.38338C14.4674 3.54061 14.4072 3.58661 14.2406 3.58661C14.0736 3.58661 13.8682 3.42883 13.3245 2.88259C12.9391 2.49539 12.5697 2.17858 12.5036 2.17858C12.3234 2.17858 10.3909 4.14638 10.3909 4.32981C10.3909 4.42368 10.8103 4.90437 11.4614 5.55668C12.485 6.58211 12.528 6.63789 12.441 6.82883C12.2698 7.20446 12.0692 7.08987 10.9413 5.97244C10.355 5.39163 9.82368 4.91641 9.76039 4.91641C9.61269 4.91641 7.65275 6.87694 7.65275 7.0247C7.65275 7.08595 7.97217 7.46174 8.36247 7.85975C8.96305 8.47208 9.06835 8.61719 9.047 8.80328C9.02689 8.97866 8.97729 9.02825 8.8019 9.04836C8.61578 9.06971 8.47066 8.96442 7.85827 8.3639C7.46023 7.97364 7.08339 7.65425 7.02088 7.65425C6.87326 7.65425 4.91465 9.61603 4.91465 9.76395C4.91465 9.82598 5.38991 10.3563 5.97078 10.9425C7.08831 12.0702 7.20292 12.2709 6.82725 12.442C6.63629 12.529 6.58051 12.486 5.55498 11.4625C4.89228 10.8012 4.4225 10.3921 4.3258 10.3921C4.1418 10.3921 2.17655 12.3259 2.17655 12.5069C2.17655 12.5717 2.49339 12.9401 2.88063 13.3255C3.42692 13.8691 3.58472 14.0745 3.58472 14.2415C3.58472 14.408 3.53871 14.4683 3.38147 14.5078C3.20287 14.5526 3.09139 14.4722 2.46076 13.8443C2.01445 13.3999 1.68142 13.1299 1.57956 13.1299C1.47661 13.1299 1.18496 13.3704 0.794276 13.7773C0.312526 14.279 0.149413 14.5078 0.069226 14.7942C-0.0515634 15.2256 -0.0126044 15.7212 0.172961 16.1121C0.245247 16.2646 1.08655 17.1639 2.04238 18.1106C3.5916 19.645 3.82066 19.8429 4.15189 19.9329C4.58522 20.0508 5.08254 20.0116 5.46665 19.8293C5.62546 19.7539 8.6689 16.7653 12.7869 12.6408C19.3916 6.02571 19.8415 5.55793 19.9345 5.20975C20.051 4.77327 20.0104 4.27748 19.8264 3.8898C19.7542 3.73735 18.9128 2.83879 17.957 1.89298C16.533 0.484015 16.1609 0.156648 15.8971 0.0808495C15.5095 -0.0305413 15.0646 -0.0266299 14.6937 0.0914099Z" fill="#55C398"/>
</svg>
