<svg width="28" height="20" viewBox="0 0 28 20" fill="none" xmlns="http://www.w3.org/2000/svg">
<path fill-rule="evenodd" clip-rule="evenodd" d="M4.4648 0.123526C3.48786 0.391747 2.625 1.3073 2.41413 2.29919C2.34959 2.6025 2.29688 3.68123 2.29688 4.69641C2.29688 7.16392 2.19461 7.03251 4.11556 7.03251C5.45934 7.03251 5.57812 7.01673 5.42183 6.85917C5.2045 6.63983 5.208 6.49243 5.45311 5.543C5.72239 4.49991 5.93447 4.12235 6.42316 3.81595C6.82292 3.56516 6.91042 3.557 9.1875 3.557C11.3424 3.557 11.5701 3.57542 11.9104 3.77767C12.5917 4.18248 12.7378 4.49925 12.7803 5.66448C12.8061 6.37459 12.7755 6.75998 12.6848 6.87032C12.5685 7.01166 12.7378 7.03251 14 7.03251C15.2622 7.03251 15.4315 7.01166 15.3152 6.87032C15.2245 6.75998 15.1939 6.37459 15.2197 5.66448C15.2622 4.49925 15.4083 4.18248 16.0896 3.77767C16.4299 3.57542 16.6576 3.557 18.8125 3.557C21.0896 3.557 21.1771 3.56516 21.5768 3.81595C22.0655 4.12235 22.2776 4.49991 22.5469 5.543C22.792 6.49243 22.7955 6.63983 22.5782 6.85917C22.4219 7.01673 22.541 7.03251 23.8882 7.03251C25.847 7.03251 25.7371 7.19613 25.6819 4.36067C25.6359 1.99291 25.5805 1.75768 24.8865 0.982804C24.6663 0.736871 24.2554 0.421096 23.9735 0.280972L23.4609 0.0263219L14.2188 0.00469665C7.01848 -0.0121844 4.86347 0.0140745 4.4648 0.123526ZM1.94414 8.42194C1.596 8.52996 1.24906 8.76199 0.881453 9.13282C0.0103904 10.0115 0 10.0833 0 15.2173C0 19.5 0.00568778 19.6163 0.224328 19.8368C0.448328 20.0628 0.785203 20.0532 1.03906 19.8134C1.09922 19.7567 1.1655 19.2409 1.18639 18.6674L1.22423 17.6245H14H26.7758L26.8136 18.6674C26.8345 19.2409 26.9008 19.7567 26.9609 19.8134C27.2148 20.0532 27.5517 20.0628 27.7757 19.8368C27.9943 19.6163 28 19.5 28 15.2173C28 10.0846 27.9894 10.0113 27.1197 9.13414C26.1828 8.18892 27.0238 8.24508 13.9527 8.2539C4.22691 8.26041 2.38153 8.28623 1.94414 8.42194ZM26.7969 15.9144V16.5212H14H1.20312V15.9144V15.3075H14H26.7969V15.9144Z" fill="#FFA800"/>
</svg>
