<svg width="21" height="20" viewBox="0 0 21 20" fill="none" xmlns="http://www.w3.org/2000/svg">
<path fill-rule="evenodd" clip-rule="evenodd" d="M3.25313 0.0763517C2.36805 0.284118 1.49861 1.02076 1.06971 1.92616L0.820747 2.45167L0.797688 6.2232L0.774629 9.99473H0.387315H0V11.1672V12.3397H10.0053H20.0106V11.1672V9.99473H10.9824H1.95416V6.45207C1.95416 2.3925 1.95221 2.40712 2.57761 1.78171C3.58487 0.774456 5.26873 1.07704 5.8703 2.37351C6.09635 2.86072 6.0704 2.9209 5.52316 3.17698C4.93003 3.45455 4.44446 3.93629 4.16666 4.52292C4.00821 4.85755 3.95459 5.11339 3.92505 5.67603L3.88698 6.39907H6.63351H9.37997V5.82705C9.37997 5.51235 9.32798 5.07986 9.26444 4.86592C9.02149 4.04775 8.35216 3.33956 7.57284 3.07606C7.22773 2.95936 7.2096 2.93826 7.16293 2.59792C7.10439 2.17066 6.80626 1.55409 6.44521 1.11346C5.7407 0.253711 4.38037 -0.188241 3.25313 0.0763517ZM0.781664 14.4855C0.781664 15.5792 0.867803 16.0989 1.14826 16.6979C1.57974 17.6195 2.36156 18.3118 3.34333 18.6417L3.86924 18.8185L3.89206 19.4092L3.91489 20H4.49441H5.07394L5.09692 19.4333L5.1199 18.8666H10.0053H14.8907L14.9137 19.4333L14.9367 20H15.5162H16.0957L16.1185 19.4092L16.1414 18.8185L16.6673 18.6417C17.649 18.3118 18.4309 17.6195 18.8623 16.6979C19.1428 16.0989 19.2289 15.5792 19.2289 14.4855V13.5122H10.0053H0.781664V14.4855Z" fill="#006CEB"/>
</svg>
